<?xml version="1.0" encoding="utf-8"?>
<!-- Generator: Adobe Illustrator 24.0.0, SVG Export Plug-In . SVG Version: 6.00 Build 0)  -->
<svg version="1.1" xmlns="http://www.w3.org/2000/svg" xmlns:xlink="http://www.w3.org/1999/xlink" x="0px" y="0px"
	 viewBox="0 0 64 64" enable-background="new 0 0 64 64" xml:space="preserve">
<g id="Captions">
</g>
<g id="Icons">
	<g>
		<g>
			<rect x="12" y="32" fill="#505050" width="12" height="4"/>
		</g>
		<g>
			<path fill="#505050" d="M24,28v-4h-7c-0.552,0-1-0.448-1-1v-7h-4v8c0,2.209,1.791,4,4,4H24z"/>
		</g>
		<g>
			<path fill="#505050" d="M26,40v4h-9c-0.552,0-1,0.448-1,1v7h-4v-8c0-2.209,1.791-4,4-4H26z"/>
		</g>
		<g>
			<rect x="12" y="32" fill="#3C3C3C" width="2" height="4"/>
		</g>
		<g>
			<path fill="#3C3C3C" d="M14,24v-8h-2v8c0,2.209,1.791,4,4,4h2C15.791,28,14,26.209,14,24z"/>
		</g>
		<g>
			<path fill="#3C3C3C" d="M18,40h-2c-2.209,0-4,1.791-4,4v8h2v-8C14,41.791,15.791,40,18,40z"/>
		</g>
		<g>
			<path fill="#505050" d="M40,28v-4h7c0.552,0,1-0.448,1-1v-7h4v8c0,2.209-1.791,4-4,4H40z"/>
		</g>
		<g>
			<path fill="#3C3C3C" d="M50,23v-7h-2v7c0,0.552-0.448,1-1,1h2C49.552,24,50,23.552,50,23z"/>
		</g>
		<g>
			<path fill="#FA6450" d="M38,42c0-5.213,3.347-9.647,8-11.3V24c0-2.209-1.791-4-4-4H22c-2.209,0-4,1.791-4,4v12
				c0,7.732,6.268,14,14,14c2.765,0,5.334-0.812,7.505-2.195C38.549,46.083,38,44.105,38,42z"/>
		</g>
		<g>
			<path fill="#FAB400" d="M36,12V6c0-1.105,0.895-2,2-2h4v2h-3c-0.552,0-1,0.448-1,1v5H36z"/>
		</g>
		<g>
			<path fill="#FAB400" d="M28,12V6c0-1.105-0.895-2-2-2h-4v2h3c0.552,0,1,0.448,1,1v5H28z"/>
		</g>
		<g>
			<path fill="#505050" d="M42,20H22v-2c0-5.523,4.477-10,10-10h0c5.523,0,10,4.477,10,10V20z"/>
		</g>
		<g>
			<path fill="#DC4632" d="M22,36V24c0-2.209,1.791-4,4-4h-4c-2.209,0-4,1.791-4,4v12c0,7.732,6.268,14,14,14
				c0.681,0,1.345-0.065,2-0.159C27.218,48.868,22,43.051,22,36z"/>
		</g>
		<g>
			<path fill="#3C3C3C" d="M34,8.201C33.354,8.07,32.685,8,32,8c-5.523,0-10,4.477-10,10v2h4v-2C26,13.162,29.436,9.128,34,8.201z"
				/>
		</g>
		<g>
			<path fill="#505050" d="M50,60L50,60c1.105,0,2-0.895,2-2v-8h-4v8C48,59.105,48.895,60,50,60z"/>
		</g>
		<g>
			<path fill="#3C3C3C" d="M50,58v-8h-2v8c0,1.105,0.895,2,2,2c0.366,0,0.705-0.106,1-0.277C50.405,59.376,50,58.738,50,58z"/>
		</g>
		<g>
			<rect x="48" y="54" fill="#FAB400" width="4" height="2"/>
		</g>
		<g>
			<rect x="48" y="54" fill="#DC9600" width="2" height="2"/>
		</g>
		<g>
			<path fill="#505050" d="M50,52c-5.514,0-10-4.486-10-10s4.486-10,10-10s10,4.486,10,10S55.514,52,50,52z"/>
		</g>
		<g>
			<path fill="#3C3C3C" d="M42,42c0-5.177,3.954-9.446,9-9.949C50.671,32.018,50.338,32,50,32c-5.514,0-10,4.486-10,10
				s4.486,10,10,10c0.338,0,0.671-0.018,1-0.051C45.954,51.446,42,47.177,42,42z"/>
		</g>
		<g>
			<circle fill="#64C8F0" cx="50" cy="42" r="8"/>
		</g>
		<g>
			<path fill="#F0F0F0" d="M54,42.8v-1.6h-0.905c-0.076-0.293-0.191-0.569-0.341-0.823l0.64-0.64l-1.131-1.131l-0.64,0.64
				c-0.254-0.15-0.53-0.265-0.823-0.341V38h-1.6v0.905c-0.293,0.076-0.569,0.191-0.823,0.341l-0.64-0.64l-1.131,1.131l0.64,0.64
				c-0.15,0.254-0.265,0.53-0.341,0.823H46v1.6h0.905c0.076,0.293,0.191,0.569,0.341,0.823l-0.64,0.64l1.131,1.131l0.64-0.64
				c0.254,0.15,0.53,0.265,0.823,0.341V46h1.6v-0.905c0.293-0.076,0.569-0.191,0.823-0.341l0.64,0.64l1.131-1.131l-0.64-0.64
				c0.15-0.254,0.265-0.53,0.341-0.823H54z M50,43.6c-0.882,0-1.6-0.718-1.6-1.6s0.718-1.6,1.6-1.6s1.6,0.718,1.6,1.6
				S50.882,43.6,50,43.6z"/>
		</g>
		<g>
			<rect x="29.5" y="28" fill="#505050" width="1" height="12"/>
		</g>
		<g>
			<rect x="31.5" y="28" fill="#505050" width="1" height="12"/>
		</g>
		<g>
			<rect x="33.5" y="28" fill="#505050" width="1" height="12"/>
		</g>
		<g>
			<rect x="26" y="31.5" fill="#505050" width="12" height="1"/>
		</g>
		<g>
			<rect x="26" y="33.5" fill="#505050" width="12" height="1"/>
		</g>
		<g>
			<rect x="26" y="35.5" fill="#505050" width="12" height="1"/>
		</g>
		<g>
			<rect x="28" y="30" fill="#505050" width="8" height="8"/>
		</g>
		<g>
			<rect x="30" y="32" transform="matrix(6.123234e-17 -1 1 6.123234e-17 -2 66)" fill="#3CC8B4" width="4" height="4"/>
		</g>
	</g>
</g>
</svg>
