<svg xmlns="http://www.w3.org/2000/svg" viewBox="0 0 512 512"><title>Artboard 113</title><g id="Data_Exchange" data-name="Data Exchange"><rect x="64" y="21.33333" width="320" height="405.33333" rx="21.33333" ry="21.33333" style="fill:#080b36"/><rect x="85.33333" y="170.66667" width="256" height="106.66667" rx="21.33333" ry="21.33333" style="fill:#4c4f6e"/><rect x="106.66667" y="170.66667" width="192" height="85.33333" rx="21.33333" ry="21.33333" style="fill:#7c7f95"/><rect x="85.33333" y="42.66667" width="256" height="106.66667" rx="21.33333" ry="21.33333" style="fill:#4c4f6e"/><rect x="85.33333" y="298.66667" width="256" height="106.66667" rx="21.33333" ry="21.33333" style="fill:#4c4f6e"/><rect x="106.66667" y="298.66667" width="192" height="85.33333" rx="21.33333" ry="21.33333" style="fill:#7c7f95"/><rect x="106.66667" y="42.66667" width="192" height="85.33333" rx="21.33333" ry="21.33333" style="fill:#7c7f95"/><rect x="149.33333" y="42.66667" width="64" height="85.33333" rx="21.33333" ry="21.33333" style="fill:#cacad4"/><rect x="149.33333" y="170.66667" width="64" height="85.33333" rx="21.33333" ry="21.33333" style="fill:#cacad4"/><rect x="149.33333" y="298.66667" width="64" height="85.33333" rx="21.33333" ry="21.33333" style="fill:#cacad4"/><circle cx="160" cy="74.66667" r="10.66667" style="fill:#e80035"/><circle cx="117.33333" cy="74.66667" r="10.66667" style="fill:#fbc700"/><circle cx="160" cy="202.66667" r="10.66667" style="fill:#e80035"/><circle cx="117.33333" cy="202.66667" r="10.66667" style="fill:#fbc700"/><circle cx="160" cy="330.66667" r="10.66667" style="fill:#e80035"/><circle cx="117.33333" cy="330.66667" r="10.66667" style="fill:#fbc700"/><circle cx="341.33333" cy="384" r="106.66667" style="fill:#0ac"/><circle cx="320" cy="384" r="85.33333" style="fill:#48e1f4"/><ellipse cx="298.66667" cy="341.33333" rx="48.26898" ry="36.20174" transform="translate(-153.88167 311.16344) rotate(-45)" style="fill:#91edf8"/><path d="M404.513,377.40625a10.69824,10.69824,0,0,0-2.31771-11.6276L380.875,344.45833a10.66553,10.66553,0,0,0-15.08333,15.08334l3.125,3.125H288A10.66667,10.66667,0,1,0,288,384h80.91667l-3.125,3.125A10.66553,10.66553,0,1,0,380.875,402.20833L402.19531,380.888A10.66459,10.66459,0,0,0,404.513,377.40625Z" style="fill:#0ac"/><path d="M394.66667,426.66667H313.75l3.125-3.125a10.66553,10.66553,0,1,0-15.08333-15.08334l-21.32032,21.32032a10.69827,10.69827,0,0,0,0,15.10937l21.32032,21.32031A10.66552,10.66552,0,0,0,316.875,451.125L313.75,448h80.91667a10.66667,10.66667,0,0,0,0-21.33333Z" style="fill:#0ac"/><path d="M404.513,356.07292a10.69825,10.69825,0,0,0-2.31771-11.62761L380.875,323.125a10.66552,10.66552,0,0,0-15.08333,15.08333l3.125,3.125H288a10.66667,10.66667,0,0,0,0,21.33334h80.91667l-3.125,3.125A10.66553,10.66553,0,1,0,380.875,380.875l21.32031-21.32031A10.66459,10.66459,0,0,0,404.513,356.07292Z" style="fill:#e9fff5"/><path d="M394.66667,405.33333H313.75l3.125-3.125A10.66552,10.66552,0,1,0,301.79167,387.125l-21.32032,21.32031a10.69828,10.69828,0,0,0,0,15.10938L301.79167,444.875A10.66552,10.66552,0,1,0,316.875,429.79167l-3.125-3.125h80.91667a10.66667,10.66667,0,0,0,0-21.33334Z" style="fill:#e9fff5"/></g></svg>