<?xml version="1.0" encoding="utf-8"?>
<!-- Generator: Adobe Illustrator 24.0.0, SVG Export Plug-In . SVG Version: 6.00 Build 0)  -->
<svg version="1.1" id="Layer_1" xmlns="http://www.w3.org/2000/svg" xmlns:xlink="http://www.w3.org/1999/xlink" x="0px" y="0px"
	 viewBox="0 0 256 256" style="enable-background:new 0 0 256 256;" xml:space="preserve">
<style type="text/css">
	.st0{fill:#382B73;}
	.st1{fill:#291B4A;}
	.st2{fill:#ED9ABC;}
	.st3{fill:#E54890;}
	.st4{fill:#D3D3D3;}
	.st5{fill:#EBE7F2;}
	.st6{fill:#F9B087;}
	.st7{fill:#FF8639;}
	.st8{fill:#65C1D6;}
	.st9{fill:#149CB2;}
</style>
<g>
	<g>
		<g>
			<g>
				<g>
					
						<ellipse transform="matrix(0.7071 -0.7071 0.7071 0.7071 -53.0193 128)" class="st0" cx="128" cy="128" rx="119.4" ry="119.4"/>
				</g>
			</g>
		</g>
	</g>
	<g>
		<g>
			<g>
				<g>
					<path class="st1" d="M65.327,60.926c-4.632,0-8.4,3.769-8.4,8.4v49.661c0,4.632,3.769,8.4,8.4,8.4h49.661
						c4.632,0,8.4-3.769,8.4-8.4V69.327c0-4.632-3.769-8.4-8.4-8.4H65.327z M118.388,69.327v49.661c0,1.875-1.525,3.4-3.4,3.4
						H65.327c-1.875,0-3.4-1.525-3.4-3.4V69.327c0-1.875,1.525-3.4,3.4-3.4h49.661C116.862,65.926,118.388,67.452,118.388,69.327z"
						/>
				</g>
			</g>
		</g>
		<g>
			<g>
				<g>
					<path class="st1" d="M76.018,76.941c-1.381,0-2.5,1.119-2.5,2.5s1.119,2.5,2.5,2.5h14.139c1.381,0,2.5-1.119,2.5-2.5
						s-1.119-2.5-2.5-2.5H76.018z"/>
				</g>
			</g>
		</g>
		<g>
			<g>
				<g>
					<path class="st1" d="M76.018,91.657c-1.381,0-2.5,1.119-2.5,2.5s1.119,2.5,2.5,2.5h28.278c1.381,0,2.5-1.119,2.5-2.5
						s-1.119-2.5-2.5-2.5H76.018z"/>
				</g>
			</g>
		</g>
		<g>
			<g>
				<g>
					<path class="st1" d="M76.018,106.373c-1.381,0-2.5,1.119-2.5,2.5s1.119,2.5,2.5,2.5h28.278c1.381,0,2.5-1.119,2.5-2.5
						s-1.119-2.5-2.5-2.5H76.018z"/>
				</g>
			</g>
		</g>
		<g>
			<g>
				<g>
					<path class="st1" d="M132.612,169.843c0,18.323,14.907,33.23,33.231,33.23c18.323,0,33.23-14.907,33.23-33.231
						c0-18.323-14.907-33.23-33.231-33.23C147.52,136.612,132.612,151.52,132.612,169.843z M194.074,169.843
						c0,15.566-12.664,28.23-28.23,28.23h0c-15.566,0-28.23-12.665-28.23-28.231s12.665-28.23,28.231-28.23
						S194.074,154.277,194.074,169.843z"/>
				</g>
			</g>
		</g>
		<g>
			<g>
				<g>
					<path class="st1" d="M151.704,152.627c-1.381,0-2.5,1.119-2.5,2.5s1.119,2.5,2.5,2.5h14.139c1.381,0,2.5-1.119,2.5-2.5
						s-1.119-2.5-2.5-2.5H151.704z"/>
				</g>
			</g>
		</g>
		<g>
			<g>
				<g>
					<path class="st1" d="M151.704,167.343c-1.381,0-2.5,1.119-2.5,2.5s1.119,2.5,2.5,2.5h28.278c1.381,0,2.5-1.119,2.5-2.5
						s-1.119-2.5-2.5-2.5H151.704z"/>
				</g>
			</g>
		</g>
		<g>
			<g>
				<g>
					<path class="st1" d="M151.704,182.059c-1.381,0-2.5,1.119-2.5,2.5s1.119,2.5,2.5,2.5h28.278c1.381,0,2.5-1.119,2.5-2.5
						s-1.119-2.5-2.5-2.5H151.704z"/>
				</g>
			</g>
		</g>
		<g>
			<g>
				<g>
					<path class="st1" d="M68.812,193.688h52.228c1.381,0,2.5-1.119,2.5-2.5s-1.119-2.5-2.5-2.5H71.312v-43.54l9.005,9.005
						c0.488,0.488,1.128,0.732,1.768,0.732s1.28-0.244,1.768-0.732c0.977-0.976,0.977-2.559,0-3.535L70.58,137.345
						c-0.976-0.977-2.56-0.977-3.535,0l-13.273,13.273c-0.977,0.976-0.977,2.559,0,3.535c0.976,0.977,2.56,0.977,3.535,0
						l9.006-9.005v46.04C66.312,192.569,67.431,193.688,68.812,193.688z"/>
				</g>
			</g>
		</g>
		<g>
			<g>
				<g>
					<path class="st1" d="M175.683,112.606c-0.976-0.977-2.56-0.977-3.535,0c-0.977,0.976-0.977,2.559,0,3.535l13.273,13.273
						c0.488,0.488,1.128,0.732,1.768,0.732s1.28-0.244,1.768-0.732l13.273-13.273c0.977-0.976,0.977-2.559,0-3.535
						c-0.976-0.977-2.56-0.977-3.535,0l-9.006,9.005V72.812c0-1.381-1.119-2.5-2.5-2.5H134.96c-1.381,0-2.5,1.119-2.5,2.5
						s1.119,2.5,2.5,2.5h49.728v46.299L175.683,112.606z"/>
				</g>
			</g>
		</g>
	</g>
	<g>
		<g>
			<g>
				<g>
					<g>
						<g>
							<path class="st2" d="M65.327,56.926c-4.632,0-8.4,3.769-8.4,8.4v49.661c0,4.632,3.769,8.4,8.4,8.4h49.661
								c4.632,0,8.4-3.769,8.4-8.4V65.327c0-4.632-3.769-8.4-8.4-8.4H65.327z M118.388,65.327v49.661c0,1.875-1.525,3.4-3.4,3.4
								H65.327c-1.875,0-3.4-1.525-3.4-3.4V65.327c0-1.875,1.525-3.4,3.4-3.4h49.661C116.862,61.926,118.388,63.452,118.388,65.327z
								"/>
						</g>
					</g>
				</g>
				<g>
					<g>
						<g>
							<path class="st4" d="M76.018,72.941c-1.381,0-2.5,1.119-2.5,2.5s1.119,2.5,2.5,2.5h14.139c1.381,0,2.5-1.119,2.5-2.5
								s-1.119-2.5-2.5-2.5H76.018z"/>
						</g>
					</g>
				</g>
				<g>
					<g>
						<g>
							<path class="st4" d="M76.018,87.657c-1.381,0-2.5,1.119-2.5,2.5s1.119,2.5,2.5,2.5h28.278c1.381,0,2.5-1.119,2.5-2.5
								s-1.119-2.5-2.5-2.5H76.018z"/>
						</g>
					</g>
				</g>
				<g>
					<g>
						<g>
							<path class="st4" d="M76.018,102.373c-1.381,0-2.5,1.119-2.5,2.5s1.119,2.5,2.5,2.5h28.278c1.381,0,2.5-1.119,2.5-2.5
								s-1.119-2.5-2.5-2.5H76.018z"/>
						</g>
					</g>
				</g>
			</g>
			<g>
				<g>
					<g>
						<g>
							<path class="st2" d="M132.612,165.843c0,18.323,14.907,33.23,33.231,33.23c18.323,0,33.23-14.907,33.23-33.231
								c0-18.323-14.907-33.23-33.231-33.23C147.52,132.612,132.612,147.52,132.612,165.843z M194.074,165.843
								c0,15.566-12.664,28.23-28.23,28.23h0c-15.566,0-28.23-12.665-28.23-28.231s12.665-28.23,28.231-28.23
								S194.074,150.277,194.074,165.843z"/>
						</g>
					</g>
				</g>
				<g>
					<g>
						<g>
							<path class="st4" d="M151.704,148.627c-1.381,0-2.5,1.119-2.5,2.5s1.119,2.5,2.5,2.5h14.139c1.381,0,2.5-1.119,2.5-2.5
								s-1.119-2.5-2.5-2.5H151.704z"/>
						</g>
					</g>
				</g>
				<g>
					<g>
						<g>
							<path class="st4" d="M151.704,163.343c-1.381,0-2.5,1.119-2.5,2.5s1.119,2.5,2.5,2.5h28.278c1.381,0,2.5-1.119,2.5-2.5
								s-1.119-2.5-2.5-2.5H151.704z"/>
						</g>
					</g>
				</g>
				<g>
					<g>
						<g>
							<path class="st4" d="M151.704,178.059c-1.381,0-2.5,1.119-2.5,2.5s1.119,2.5,2.5,2.5h28.278c1.381,0,2.5-1.119,2.5-2.5
								s-1.119-2.5-2.5-2.5H151.704z"/>
						</g>
					</g>
				</g>
			</g>
		</g>
		<g>
			<g>
				<g>
					<g>
						<path class="st3" d="M65.327,56.926c-4.632,0-8.4,3.769-8.4,8.4v49.661c0,4.632,3.769,8.4,8.4,8.4h49.661
							c4.632,0,8.4-3.769,8.4-8.4V65.327c0-4.632-3.769-8.4-8.4-8.4H65.327z M121.888,65.327v49.661c0,3.805-3.095,6.9-6.9,6.9
							H65.327c-3.805,0-6.9-3.095-6.9-6.9V65.327c0-3.805,3.096-6.9,6.9-6.9h49.661C118.792,58.426,121.888,61.522,121.888,65.327z"
							/>
						<path class="st3" d="M65.327,60.426c-2.702,0-4.9,2.198-4.9,4.9v49.661c0,2.702,2.198,4.9,4.9,4.9h49.661
							c2.702,0,4.9-2.198,4.9-4.9V65.327c0-2.702-2.198-4.9-4.9-4.9H65.327z M118.388,65.327v49.661c0,1.875-1.525,3.4-3.4,3.4
							H65.327c-1.875,0-3.4-1.525-3.4-3.4V65.327c0-1.875,1.525-3.4,3.4-3.4h49.661C116.862,61.926,118.388,63.452,118.388,65.327z"
							/>
					</g>
				</g>
			</g>
			<g>
				<g>
					<g>
						<path class="st5" d="M76.018,72.941c-1.381,0-2.5,1.119-2.5,2.5s1.119,2.5,2.5,2.5h14.139c1.381,0,2.5-1.119,2.5-2.5
							s-1.119-2.5-2.5-2.5H76.018z M91.157,75.441c0,0.551-0.449,1-1,1H76.018c-0.551,0-1-0.449-1-1s0.449-1,1-1h14.139
							C90.709,74.441,91.157,74.89,91.157,75.441z"/>
					</g>
				</g>
			</g>
			<g>
				<g>
					<g>
						<path class="st5" d="M76.018,87.657c-1.381,0-2.5,1.119-2.5,2.5s1.119,2.5,2.5,2.5h28.278c1.381,0,2.5-1.119,2.5-2.5
							s-1.119-2.5-2.5-2.5H76.018z M105.296,90.157c0,0.551-0.449,1-1,1H76.018c-0.551,0-1-0.449-1-1s0.449-1,1-1h28.278
							C104.847,89.157,105.296,89.606,105.296,90.157z"/>
					</g>
				</g>
			</g>
			<g>
				<g>
					<g>
						<path class="st5" d="M76.018,102.373c-1.381,0-2.5,1.119-2.5,2.5s1.119,2.5,2.5,2.5h28.278c1.381,0,2.5-1.119,2.5-2.5
							s-1.119-2.5-2.5-2.5H76.018z M105.296,104.873c0,0.551-0.449,1-1,1H76.018c-0.551,0-1-0.449-1-1s0.449-1,1-1h28.278
							C104.847,103.873,105.296,104.322,105.296,104.873z"/>
					</g>
				</g>
			</g>
			<g>
				<g>
					<g>
						<path class="st3" d="M132.612,165.843c0,18.323,14.907,33.23,33.231,33.23c18.323,0,33.23-14.907,33.23-33.231
							c0-18.323-14.907-33.23-33.231-33.23C147.52,132.612,132.612,147.52,132.612,165.843z M197.574,165.843
							c0,17.496-14.234,31.731-31.73,31.731c-17.497,0-31.731-14.234-31.731-31.73c0-17.496,14.234-31.731,31.73-31.731
							C183.339,134.112,197.574,148.347,197.574,165.843z"/>
						<path class="st3" d="M136.112,165.843c0,16.394,13.337,29.731,29.73,29.731h0c16.393,0,29.73-13.337,29.73-29.73
							c0-16.394-13.337-29.731-29.73-29.731C149.45,136.112,136.112,149.449,136.112,165.843z M165.843,137.612
							c15.566,0,28.23,12.665,28.23,28.231s-12.664,28.23-28.23,28.23h0c-15.566,0-28.23-12.665-28.23-28.231
							S150.277,137.612,165.843,137.612z"/>
					</g>
				</g>
			</g>
			<g>
				<g>
					<g>
						<path class="st5" d="M151.704,148.627c-1.381,0-2.5,1.119-2.5,2.5s1.119,2.5,2.5,2.5h14.139c1.381,0,2.5-1.119,2.5-2.5
							s-1.119-2.5-2.5-2.5H151.704z M166.843,151.127c0,0.551-0.449,1-1,1h-14.139c-0.551,0-1-0.449-1-1s0.449-1,1-1h14.139
							C166.394,150.127,166.843,150.576,166.843,151.127z"/>
					</g>
				</g>
			</g>
			<g>
				<g>
					<g>
						<path class="st5" d="M151.704,163.343c-1.381,0-2.5,1.119-2.5,2.5s1.119,2.5,2.5,2.5h28.278c1.381,0,2.5-1.119,2.5-2.5
							s-1.119-2.5-2.5-2.5H151.704z M180.982,165.843c0,0.551-0.449,1-1,1h-28.278c-0.551,0-1-0.449-1-1s0.449-1,1-1h28.278
							C180.533,164.843,180.982,165.292,180.982,165.843z"/>
					</g>
				</g>
			</g>
			<g>
				<g>
					<g>
						<path class="st5" d="M151.704,178.059c-1.381,0-2.5,1.119-2.5,2.5s1.119,2.5,2.5,2.5h28.278c1.381,0,2.5-1.119,2.5-2.5
							s-1.119-2.5-2.5-2.5H151.704z M180.982,180.559c0,0.551-0.449,1-1,1h-28.278c-0.551,0-1-0.449-1-1s0.449-1,1-1h28.278
							C180.533,179.559,180.982,180.008,180.982,180.559z"/>
					</g>
				</g>
			</g>
		</g>
		<g>
			<g>
				<g>
					<g>
						<path class="st6" d="M187.188,123.54c1.381,0,2.5-1.119,2.5-2.5V68.812c0-1.381-1.119-2.5-2.5-2.5H134.96
							c-1.381,0-2.5,1.119-2.5,2.5s1.119,2.5,2.5,2.5h49.728v49.728C184.688,122.42,185.807,123.54,187.188,123.54z"/>
					</g>
				</g>
			</g>
			<g>
				<g>
					<g>
						<path class="st6" d="M68.812,135.224c-1.381,0-2.5,1.119-2.5,2.5v49.464c0,1.381,1.119,2.5,2.5,2.5h52.228
							c1.381,0,2.5-1.119,2.5-2.5s-1.119-2.5-2.5-2.5H71.312v-46.964C71.312,136.343,70.193,135.224,68.812,135.224z"/>
					</g>
				</g>
			</g>
		</g>
		<g>
			<g>
				<g>
					<path class="st6" d="M198.694,108.606l-11.506,11.505l-11.505-11.505c-0.976-0.977-2.56-0.977-3.535,0
						c-0.977,0.976-0.977,2.559,0,3.535l13.273,13.273c0.488,0.488,1.128,0.732,1.768,0.732s1.28-0.244,1.768-0.732l13.273-13.273
						c0.977-0.976,0.977-2.559,0-3.535C201.253,107.629,199.669,107.629,198.694,108.606z"/>
				</g>
			</g>
		</g>
		<g>
			<g>
				<g>
					<path class="st6" d="M67.044,133.345l-13.273,13.273c-0.977,0.976-0.977,2.559,0,3.535c0.976,0.977,2.56,0.977,3.535,0
						l11.506-11.505l11.505,11.505c0.488,0.488,1.128,0.732,1.768,0.732s1.28-0.244,1.768-0.732c0.977-0.976,0.977-2.559,0-3.535
						L70.58,133.345C69.604,132.368,68.02,132.368,67.044,133.345z"/>
				</g>
			</g>
		</g>
		<g>
			<g>
				<g>
					<g>
						<path class="st7" d="M68.812,189.688h52.228c1.381,0,2.5-1.119,2.5-2.5s-1.119-2.5-2.5-2.5H71.312v-43.54l9.005,9.005
							c0.488,0.488,1.128,0.732,1.768,0.732s1.28-0.244,1.768-0.732c0.977-0.976,0.977-2.559,0-3.535L70.58,133.345
							c-0.488-0.488-1.128-0.732-1.768-0.732s-1.28,0.244-1.768,0.732l-13.273,13.273c-0.977,0.976-0.977,2.559,0,3.535
							c0.488,0.488,1.128,0.732,1.768,0.732s1.28-0.244,1.768-0.732l9.006-9.005v46.04
							C66.312,188.569,67.431,189.688,68.812,189.688z M65.251,140.087l-9.006,9.006c-0.188,0.189-0.439,0.293-0.706,0.293
							c-0.267,0-0.518-0.104-0.707-0.293c-0.189-0.189-0.293-0.44-0.293-0.707s0.104-0.518,0.293-0.707l13.274-13.273
							c0.188-0.189,0.439-0.293,0.706-0.293c0.267,0,0.518,0.104,0.707,0.293l13.273,13.273c0.189,0.189,0.293,0.44,0.293,0.707
							s-0.104,0.518-0.294,0.707c-0.188,0.189-0.439,0.293-0.706,0.293c-0.267,0-0.518-0.104-0.707-0.293l-9.005-9.005
							c-0.287-0.287-0.671-0.439-1.061-0.439c-0.193,0-0.388,0.037-0.574,0.114c-0.56,0.232-0.926,0.779-0.926,1.386v43.54
							c0,0.828,0.672,1.5,1.5,1.5h49.728c0.551,0,1,0.449,1,1s-0.449,1-1,1H68.812c-0.551,0-1-0.449-1-1v-46.04
							c0-0.607-0.365-1.154-0.926-1.386c-0.186-0.077-0.38-0.114-0.574-0.114C65.922,139.648,65.538,139.8,65.251,140.087z"/>
					</g>
				</g>
			</g>
			<g>
				<g>
					<g>
						<path class="st7" d="M175.683,108.606c-0.488-0.488-1.128-0.732-1.768-0.732s-1.28,0.244-1.768,0.732
							c-0.977,0.976-0.977,2.559,0,3.535l13.273,13.273c0.488,0.488,1.128,0.732,1.768,0.732s1.28-0.244,1.768-0.732l13.273-13.273
							c0.977-0.976,0.977-2.559,0-3.535c-0.488-0.488-1.128-0.732-1.768-0.732s-1.28,0.244-1.768,0.732l-9.006,9.005V68.812
							c0-1.381-1.119-2.5-2.5-2.5H134.96c-1.381,0-2.5,1.119-2.5,2.5s1.119,2.5,2.5,2.5h49.728v46.299L175.683,108.606z
							 M184.688,69.812H134.96c-0.551,0-1-0.449-1-1s0.449-1,1-1h52.228c0.551,0,1,0.449,1,1v48.799
							c0,0.607,0.365,1.154,0.926,1.386c0.186,0.077,0.38,0.114,0.574,0.114c0.39,0,0.774-0.152,1.061-0.439l9.006-9.006
							c0.188-0.189,0.439-0.293,0.706-0.293c0.267,0,0.518,0.104,0.707,0.293c0.189,0.189,0.293,0.44,0.293,0.707
							s-0.104,0.518-0.293,0.707l-13.274,13.273c-0.188,0.189-0.439,0.293-0.706,0.293c-0.267,0-0.518-0.104-0.707-0.293
							l-13.273-13.273c-0.189-0.189-0.293-0.44-0.293-0.707s0.104-0.518,0.294-0.707c0.188-0.189,0.439-0.293,0.706-0.293
							s0.518,0.104,0.707,0.293l9.005,9.005c0.287,0.287,0.671,0.439,1.061,0.439c0.193,0,0.388-0.037,0.574-0.114
							c0.56-0.232,0.926-0.779,0.926-1.386V71.312C186.188,70.484,185.516,69.812,184.688,69.812z"/>
					</g>
				</g>
			</g>
		</g>
	</g>
</g>
</svg>
