<?xml version="1.0" encoding="utf-8"?>
<!-- Generator: Adobe Illustrator 18.0.0, SVG Export Plug-In . SVG Version: 6.00 Build 0)  -->
<!DOCTYPE svg PUBLIC "-//W3C//DTD SVG 1.1//EN" "http://www.w3.org/Graphics/SVG/1.1/DTD/svg11.dtd">
<svg version="1.1" id="Icon_Set" xmlns="http://www.w3.org/2000/svg" xmlns:xlink="http://www.w3.org/1999/xlink" x="0px" y="0px"
	 viewBox="0 0 256 256" style="enable-background:new 0 0 256 256;" xml:space="preserve">
<style type="text/css">
	.st0{fill:#4C4372;}
	.st1{fill:#F0C48A;}
	.st2{fill:#FD919E;}
	.st3{fill:#D3E6F8;}
	.st4{fill:#A4CFF2;}
	.st5{fill:#FFFFFF;}
	.st6{fill:#7BABF1;}
	.st7{fill:#E8677D;}
</style>
<g>
	<g>
		<g>
			<circle class="st1" cx="128" cy="128" r="103.5"/>
		</g>
	</g>
	<g>
		<path class="st0" d="M128,174.777c-1.657,0-3-1.343-3-3V52.338c0-1.657,1.343-3,3-3s3,1.343,3,3v119.438
			C131,173.434,129.657,174.777,128,174.777z"/>
	</g>
	<g>
		<path class="st0" d="M128,174.777c-1.657,0-3-1.343-3-3V52.338c0-1.657,1.343-3,3-3s3,1.343,3,3v119.438
			C131,173.434,129.657,174.777,128,174.777z"/>
	</g>
	<g>
		<path class="st0" d="M187.719,115.058H68.281c-1.657,0-3-1.343-3-3s1.343-3,3-3h119.438c1.657,0,3,1.343,3,3
			S189.376,115.058,187.719,115.058z"/>
	</g>
	<g>
		<path class="st0" d="M187.719,115.058H68.281c-1.657,0-3-1.343-3-3s1.343-3,3-3h119.438c1.657,0,3,1.343,3,3
			S189.376,115.058,187.719,115.058z"/>
	</g>
	<g>
		<path class="st0" d="M85.772,157.285c-0.768,0-1.536-0.293-2.121-0.879c-1.172-1.171-1.172-3.071,0-4.242l84.456-84.456
			c1.171-1.172,3.072-1.171,4.242,0c1.172,1.171,1.172,3.071,0,4.242l-84.456,84.456C87.308,156.992,86.54,157.285,85.772,157.285z"
			/>
	</g>
	<g>
		<path class="st0" d="M85.772,157.285c-0.768,0-1.536-0.293-2.121-0.879c-1.172-1.171-1.172-3.071,0-4.242l84.456-84.456
			c1.171-1.172,3.072-1.171,4.242,0c1.172,1.171,1.172,3.071,0,4.242l-84.456,84.456C87.308,156.992,86.54,157.285,85.772,157.285z"
			/>
	</g>
	<g>
		<circle class="st6" cx="174.463" cy="65.594" r="7.976"/>
	</g>
	<g>
		<path class="st0" d="M174.463,76.571c-2.932,0-5.688-1.142-7.762-3.215c-2.073-2.073-3.215-4.829-3.215-7.761
			c0-2.932,1.142-5.688,3.215-7.761c2.073-2.073,4.829-3.215,7.761-3.215c2.932,0,5.688,1.142,7.761,3.214
			c4.28,4.28,4.28,11.244,0,15.523C180.151,75.429,177.395,76.571,174.463,76.571z M174.463,60.618c-1.33,0-2.579,0.518-3.519,1.457
			c-0.94,0.94-1.458,2.19-1.458,3.519s0.518,2.579,1.458,3.519c0.94,0.94,2.19,1.458,3.519,1.458s2.579-0.518,3.519-1.458
			c1.94-1.94,1.94-5.098,0-7.038C177.042,61.136,175.792,60.618,174.463,60.618z"/>
	</g>
	<g>
		<circle class="st6" cx="81.537" cy="158.521" r="7.977"/>
	</g>
	<g>
		<path class="st0" d="M81.537,169.497c-2.932,0-5.688-1.142-7.761-3.214c-4.279-4.28-4.279-11.244,0-15.523
			c2.074-2.073,4.83-3.215,7.762-3.215c2.932,0,5.688,1.142,7.761,3.215c4.28,4.28,4.28,11.243,0,15.523
			C87.225,168.355,84.469,169.497,81.537,169.497z M81.537,153.544c-1.329,0-2.579,0.518-3.519,1.458c-1.94,1.94-1.94,5.098,0,7.038
			c0.939,0.939,2.189,1.457,3.519,1.457c1.33,0,2.579-0.518,3.519-1.457c1.94-1.94,1.94-5.098,0-7.039
			C84.116,154.062,82.866,153.544,81.537,153.544z"/>
	</g>
	<g>
		<path class="st0" d="M170.228,157.285c-0.768,0-1.536-0.293-2.121-0.879L83.651,71.951c-1.172-1.171-1.172-3.071,0-4.242
			c1.171-1.172,3.071-1.172,4.242,0l84.456,84.456c1.172,1.171,1.172,3.071,0,4.242
			C171.764,156.992,170.996,157.285,170.228,157.285z"/>
	</g>
	<g>
		<path class="st0" d="M170.228,157.285c-0.768,0-1.536-0.293-2.121-0.879L83.651,71.951c-1.172-1.171-1.172-3.071,0-4.242
			c1.171-1.172,3.071-1.172,4.242,0l84.456,84.456c1.172,1.171,1.172,3.071,0,4.242
			C171.764,156.992,170.996,157.285,170.228,157.285z"/>
	</g>
	<g>
		<circle class="st6" cx="128" cy="46.349" r="7.977"/>
	</g>
	<g>
		<path class="st0" d="M128,57.325c-6.053,0-10.977-4.924-10.977-10.977c0-6.052,4.924-10.976,10.977-10.976
			s10.977,4.924,10.977,10.976C138.977,52.401,134.053,57.325,128,57.325z M128,41.373c-2.744,0-4.977,2.232-4.977,4.976
			c0,2.744,2.232,4.977,4.977,4.977s4.977-2.232,4.977-4.977C132.977,43.605,130.744,41.373,128,41.373z"/>
	</g>
	<g>
		<circle class="st6" cx="128" cy="177.767" r="7.977"/>
	</g>
	<g>
		<path class="st0" d="M128,188.743c-6.053,0-10.977-4.924-10.977-10.976c0-6.053,4.924-10.977,10.977-10.977
			s10.977,4.924,10.977,10.977C138.977,183.819,134.053,188.743,128,188.743z M128,172.79c-2.744,0-4.977,2.232-4.977,4.977
			c0,2.744,2.232,4.976,4.977,4.976s4.977-2.232,4.977-4.976C132.977,175.022,130.744,172.79,128,172.79z"/>
	</g>
	<g>
		<circle class="st6" cx="193.709" cy="112.058" r="7.977"/>
	</g>
	<g>
		<path class="st0" d="M193.709,123.034c-6.053,0-10.977-4.924-10.977-10.977s4.924-10.977,10.977-10.977
			c6.052,0,10.976,4.924,10.976,10.977S199.761,123.034,193.709,123.034z M193.709,107.081c-2.744,0-4.977,2.232-4.977,4.977
			s2.232,4.977,4.977,4.977c2.744,0,4.976-2.232,4.976-4.977S196.453,107.081,193.709,107.081z"/>
	</g>
	<g>
		<circle class="st6" cx="62.291" cy="112.058" r="7.977"/>
	</g>
	<g>
		<path class="st0" d="M62.291,123.034c-6.052,0-10.976-4.924-10.976-10.977s4.924-10.977,10.976-10.977
			c6.053,0,10.977,4.924,10.977,10.977S68.344,123.034,62.291,123.034z M62.291,107.081c-2.744,0-4.976,2.232-4.976,4.977
			s2.232,4.977,4.976,4.977c2.744,0,4.977-2.232,4.977-4.977S65.035,107.081,62.291,107.081z"/>
	</g>
	<g>
		<circle class="st6" cx="174.463" cy="158.521" r="7.977"/>
	</g>
	<g>
		<path class="st0" d="M174.463,169.497c-2.932,0-5.688-1.142-7.761-3.215c-4.28-4.28-4.28-11.243,0-15.523
			c2.073-2.073,4.829-3.215,7.761-3.215c2.932,0,5.688,1.142,7.761,3.214c4.279,4.28,4.279,11.244,0,15.523
			C180.151,168.355,177.395,169.497,174.463,169.497z M174.463,153.544c-1.33,0-2.579,0.518-3.519,1.457
			c-1.94,1.94-1.94,5.098,0,7.039c0.94,0.939,2.189,1.457,3.519,1.457c1.329,0,2.579-0.518,3.519-1.458
			c1.94-1.94,1.94-5.098,0-7.038C177.042,154.062,175.792,153.544,174.463,153.544z"/>
	</g>
	<g>
		<circle class="st6" cx="81.537" cy="65.594" r="7.976"/>
	</g>
	<g>
		<path class="st0" d="M81.537,76.571c-2.932,0-5.688-1.142-7.761-3.215c-4.28-4.279-4.28-11.243,0-15.522
			c2.074-2.073,4.83-3.215,7.762-3.215c2.932,0,5.688,1.142,7.761,3.215c2.074,2.073,3.215,4.83,3.215,7.761
			c0,2.932-1.142,5.688-3.215,7.762C87.225,75.429,84.469,76.571,81.537,76.571z M81.537,60.618c-1.329,0-2.579,0.518-3.519,1.458
			c-1.94,1.94-1.94,5.097,0,7.038c0.94,0.94,2.19,1.458,3.519,1.458s2.579-0.518,3.519-1.458c0.94-0.94,1.458-2.19,1.458-3.519
			s-0.518-2.579-1.458-3.519C84.116,61.136,82.866,60.618,81.537,60.618z"/>
	</g>
	<g>
		<g>
			<circle class="st4" cx="128" cy="112.058" r="40.233"/>
		</g>
		<g>
			<circle class="st3" cx="128" cy="112.058" r="27.723"/>
		</g>
		<g>
			<circle class="st2" cx="128" cy="112.058" r="15.953"/>
		</g>
		<g>
			<path class="st0" d="M128,131.01c-10.451,0-18.953-8.502-18.953-18.953S117.549,93.105,128,93.105s18.953,8.502,18.953,18.953
				S138.451,131.01,128,131.01z M128,99.105c-7.142,0-12.953,5.811-12.953,12.953S120.858,125.01,128,125.01
				s12.953-5.811,12.953-12.953S135.142,99.105,128,99.105z"/>
		</g>
		<g>
			<path class="st0" d="M128,142.78c-16.94,0-30.723-13.782-30.723-30.723S111.06,81.335,128,81.335s30.723,13.782,30.723,30.723
				S144.94,142.78,128,142.78z M128,87.335c-13.632,0-24.723,11.09-24.723,24.723S114.368,136.78,128,136.78
				s24.723-11.09,24.723-24.723S141.632,87.335,128,87.335z"/>
		</g>
		<g>
			<path class="st0" d="M128,155.291c-23.839,0-43.233-19.394-43.233-43.233S104.161,68.825,128,68.825s43.233,19.394,43.233,43.233
				S151.839,155.291,128,155.291z M128,74.825c-20.53,0-37.233,16.703-37.233,37.233S107.47,149.291,128,149.291
				s37.233-16.703,37.233-37.233S148.53,74.825,128,74.825z"/>
		</g>
	</g>
	<g>
		<path class="st5" d="M166.421,126.146c-3.537,0-6.404,2.867-6.404,6.404c0-3.537-2.868-6.404-6.405-6.404
			c-3.537,0-6.404,2.867-6.404,6.404c0-3.537-2.867-6.404-6.404-6.404s-6.405,2.867-6.405,6.404v-20.801
			c0-3.537-2.867-6.404-6.404-6.404c-3.537,0-6.405,2.867-6.405,6.404v35.198v3.645v8.733c0-3.537-2.867-6.405-6.404-6.405
			c-3.537,0-6.404,2.868-6.404,6.405v22.82c0,3.537,2.867,6.404,6.404,6.404h6.404v6.399c0,3.912,3.172,7.084,7.084,7.084h2.59
			v15.595h31.889v-15.595h2.59c3.912,0,7.084-3.172,7.084-7.084v-44.356v-3.645V132.55
			C172.826,129.013,169.958,126.146,166.421,126.146z"/>
	</g>
	<g>
		<path class="st3" d="M163.152,202.032h2.59c3.912,0,7.084-3.171,7.084-7.083v-44.356v-3.645v-14.18
			c0-3.243-2.319-6.137-5.534-6.564c-1.84-0.244-3.547,0.299-4.848,1.333v63.099c0,1.856-1.504,3.361-3.36,3.361l0,0
			c-1.856,0-3.361,1.504-3.361,3.36v20.27h7.43V202.032z"/>
	</g>
	<g>
		<g>
			<path class="st3" d="M115.507,152.938c0.026,0.235,0.043,0.474,0.043,0.717v-0.715
				C115.536,152.939,115.521,152.938,115.507,152.938z"/>
		</g>
		<g>
			<path class="st3" d="M141.168,126.879c0-0.141,0.012-0.28,0.021-0.419C141.176,126.609,141.168,126.751,141.168,126.879z"/>
		</g>
		<g>
			<path class="st3" d="M153.935,126.162c0.026,0.236,0.042,0.475,0.042,0.717c0-0.241,0.016-0.478,0.042-0.712
				C153.991,126.165,153.963,126.164,153.935,126.162z"/>
		</g>
	</g>
	<g>
		<path class="st0" d="M163.152,220.627h-31.889c-1.657,0-3-1.343-3-3v-12.603c-5.371-0.216-9.674-4.653-9.674-10.076v-3.399h-3.404
			c-5.186,0-9.404-4.219-9.404-9.404v-22.82c0-5.186,4.219-9.405,9.404-9.405c1.2,0,2.348,0.226,3.404,0.638v-38.81
			c0-5.186,4.219-9.404,9.405-9.404c5.186,0,9.404,4.219,9.404,9.404v12.035c1.056-0.412,2.205-0.638,3.405-0.638
			c2.472,0,4.724,0.958,6.404,2.523c1.68-1.565,3.933-2.523,6.404-2.523c2.472,0,4.724,0.958,6.405,2.523
			c1.68-1.565,3.933-2.523,6.404-2.523c5.186,0,9.405,4.219,9.405,9.404v62.398c0,5.423-4.303,9.86-9.674,10.076v12.603
			C166.152,219.284,164.809,220.627,163.152,220.627z M134.264,214.627h25.889v-12.595c0-1.657,1.343-3,3-3h2.59
			c2.252,0,4.084-1.832,4.084-4.084V132.55c0-1.877-1.527-3.404-3.405-3.404c-1.877,0-3.404,1.527-3.404,3.404c0,1.657-1.343,3-3,3
			s-3-1.343-3-3c0-1.877-1.527-3.404-3.405-3.404c-1.877,0-3.404,1.527-3.404,3.404c0,1.657-1.343,3-3,3s-3-1.343-3-3
			c0-1.877-1.527-3.404-3.404-3.404c-1.877,0-3.405,1.527-3.405,3.404c0,1.657-1.343,3-3,3s-3-1.343-3-3v-20.801
			c0-1.877-1.527-3.404-3.404-3.404c-1.877,0-3.405,1.527-3.405,3.404v47.577c0,1.657-1.343,3-3,3s-3-1.343-3-3
			c0-1.877-1.527-3.405-3.404-3.405s-3.404,1.527-3.404,3.405v22.82c0,1.877,1.527,3.404,3.404,3.404h6.404c1.657,0,3,1.343,3,3
			v6.399c0,2.252,1.832,4.084,4.084,4.084h2.59c1.657,0,3,1.343,3,3V214.627z"/>
	</g>
	<g>
		<path class="st0" d="M121.59,179.683c-1.657,0-3-1.343-3-3v-17.357c0-1.657,1.343-3,3-3s3,1.343,3,3v17.357
			C124.59,178.339,123.247,179.683,121.59,179.683z"/>
	</g>
	<g>
		<path class="st0" d="M134.399,149.947c-1.657,0-3-1.343-3-3V132.55c0-1.657,1.343-3,3-3s3,1.343,3,3v14.397
			C137.399,148.604,136.056,149.947,134.399,149.947z"/>
	</g>
	<g>
		<path class="st0" d="M147.208,149.947c-1.657,0-3-1.343-3-3V132.55c0-1.657,1.343-3,3-3s3,1.343,3,3v14.397
			C150.208,148.604,148.865,149.947,147.208,149.947z"/>
	</g>
	<g>
		<path class="st0" d="M160.017,149.947c-1.657,0-3-1.343-3-3V132.55c0-1.657,1.343-3,3-3s3,1.343,3,3v14.397
			C163.017,148.604,161.674,149.947,160.017,149.947z"/>
	</g>
</g>
</svg>
