<?xml version="1.0" encoding="utf-8"?>
<!-- Generator: Adobe Illustrator 22.0.1, SVG Export Plug-In . SVG Version: 6.00 Build 0)  -->
<svg version="1.1" id="Layer_3" xmlns="http://www.w3.org/2000/svg" xmlns:xlink="http://www.w3.org/1999/xlink" x="0px" y="0px"
	 viewBox="0 0 64 64" style="enable-background:new 0 0 64 64;" xml:space="preserve">
<style type="text/css">
	.st0{fill:#FAF5F5;}
	.st1{fill:#63312D;}
	.st2{fill:#F9A287;}
	.st3{fill:#FCB7A4;}
	.st4{fill:#DB785A;}
	.st5{fill:#E0E0E0;}
	.st6{fill:#84DBFF;}
	.st7{fill:#EFC36A;}
	.st8{fill:#F9DD9D;}
	.st9{fill:#EEC26A;}
	.st10{fill:#A9EBFF;}
	.st11{fill:#52BADB;}
	.st12{fill:#FFFFFF;}
	.st13{fill:#F0EEEE;}
	.st14{fill:#BDBDBD;}
	.st15{fill:#E3DFDF;}
	.st16{fill:#FFE8BB;}
	.st17{fill:#FFF2D2;}
	.st18{fill:#D8C18F;}
	.st19{fill:#EAD194;}
	.st20{fill:#BFA064;}
	.st21{fill:#CCCCCC;}
	.st22{fill:#C5F1FF;}
	.st23{fill:#D3A553;}
	.st24{fill:#67C7E5;}
</style>
<g>
	<circle class="st2" cx="30.49" cy="20.215" r="6.667"/>
	<path class="st1" d="M30.49,27.382c-3.952,0-7.167-3.215-7.167-7.167s3.215-7.167,7.167-7.167s7.167,3.215,7.167,7.167
		S34.442,27.382,30.49,27.382z M30.49,14.049c-3.4,0-6.167,2.766-6.167,6.167s2.766,6.167,6.167,6.167s6.167-2.766,6.167-6.167
		S33.891,14.049,30.49,14.049z"/>
	<circle class="st8" cx="16.584" cy="7.59" r="4.542"/>
	<path class="st1" d="M16.584,12.632c-2.78,0-5.042-2.262-5.042-5.042s2.262-5.042,5.042-5.042s5.042,2.262,5.042,5.042
		S19.364,12.632,16.584,12.632z M16.584,3.549c-2.229,0-4.042,1.813-4.042,4.042s1.813,4.042,4.042,4.042s4.042-1.813,4.042-4.042
		S18.813,3.549,16.584,3.549z"/>
	<circle class="st8" cx="47.257" cy="9.569" r="3.979"/>
	<path class="st1" d="M47.257,14.049c-2.47,0-4.479-2.009-4.479-4.479c0-2.47,2.009-4.479,4.479-4.479
		c2.47,0,4.479,2.009,4.479,4.479C51.736,12.039,49.727,14.049,47.257,14.049z M47.257,6.09c-1.918,0-3.479,1.561-3.479,3.479
		s1.561,3.479,3.479,3.479s3.479-1.561,3.479-3.479S49.175,6.09,47.257,6.09z"/>
	<circle class="st8" cx="49.321" cy="26.202" r="3.299"/>
	<path class="st1" d="M49.321,30.001c-2.095,0-3.799-1.705-3.799-3.799s1.705-3.799,3.799-3.799s3.799,1.705,3.799,3.799
		S51.416,30.001,49.321,30.001z M49.321,23.403c-1.543,0-2.799,1.256-2.799,2.799s1.256,2.799,2.799,2.799s2.799-1.256,2.799-2.799
		S50.864,23.403,49.321,23.403z"/>
	<circle class="st8" cx="14.672" cy="26.871" r="3.969"/>
	<path class="st1" d="M14.671,31.34c-2.429,0-4.425-1.955-4.467-4.392c-0.042-2.464,1.928-4.502,4.392-4.545
		c2.493-0.039,4.503,1.929,4.545,4.392c0,0,0,0,0,0c0.042,2.463-1.929,4.502-4.392,4.544C14.723,31.34,14.697,31.34,14.671,31.34z
		 M14.672,23.403c-0.02,0-0.04,0-0.06,0c-1.912,0.033-3.441,1.615-3.409,3.527c0.033,1.913,1.569,3.46,3.527,3.409
		c1.912-0.033,3.441-1.615,3.409-3.528v0C18.108,24.92,16.558,23.403,14.672,23.403z"/>
	<path class="st6" d="M31.953,37.446V23.378c0-1.747-1.416-3.163-3.163-3.163h0c-1.747,0-3.163,1.416-3.163,3.163v14.068v19.403
		c0,2.266,1.837,4.103,4.103,4.103h15.502c2.266,0,4.103-1.837,4.103-4.103v-16.12c0-1.813-1.47-3.282-3.282-3.282H31.953z"/>
	<g>
		<g>
			<g>
				<path class="st10" d="M27.194,57.911V38.508V23.278c0-1.105,0.895-2,2-2h1.163c0.316,0,0.615,0.06,0.903,0.147
					c-0.579-0.731-1.464-1.209-2.47-1.209c-1.747,0-3.163,1.416-3.163,3.163v14.068v19.402c0,1.755,1.107,3.241,2.656,3.827
					C27.613,59.945,27.194,58.98,27.194,57.911z"/>
			</g>
		</g>
	</g>
	<circle class="st0" cx="45.926" cy="44.23" r="1.331"/>
	<circle class="st0" cx="33.549" cy="54.445" r="1.331"/>
	<circle class="st0" cx="41.709" cy="54.445" r="1.331"/>
	<path class="st1" d="M45.926,46.06c-1.009,0-1.831-0.821-1.831-1.831s0.821-1.831,1.831-1.831s1.831,0.821,1.831,1.831
		S46.936,46.06,45.926,46.06z M45.926,43.399c-0.458,0-0.831,0.373-0.831,0.831s0.373,0.831,0.831,0.831s0.831-0.373,0.831-0.831
		S46.384,43.399,45.926,43.399z"/>
	<path class="st1" d="M33.549,56.276c-1.009,0-1.831-0.821-1.831-1.831s0.821-1.831,1.831-1.831s1.831,0.821,1.831,1.831
		S34.558,56.276,33.549,56.276z M33.549,53.615c-0.458,0-0.831,0.373-0.831,0.831s0.373,0.831,0.831,0.831s0.831-0.373,0.831-0.831
		S34.007,53.615,33.549,53.615z"/>
	<path class="st1" d="M41.71,56.276c-1.009,0-1.831-0.821-1.831-1.831s0.821-1.831,1.831-1.831s1.831,0.821,1.831,1.831
		S42.719,56.276,41.71,56.276z M41.71,53.615c-0.458,0-0.831,0.373-0.831,0.831s0.373,0.831,0.831,0.831s0.831-0.373,0.831-0.831
		S42.168,53.615,41.71,53.615z"/>
	<path class="st6" d="M25.627,44.966L22.562,41.9c-1.367-1.368-3.585-1.368-4.952,0h0c-1.367,1.367-1.367,3.585,0,4.952l8.018,8.018
		V44.966z"/>
	<path class="st10" d="M19.217,46.852c-1.368-1.367-1.368-3.585,0-4.952c0.477-0.477,1.06-0.777,1.672-0.922
		c-1.142-0.269-2.39,0.031-3.28,0.922c-1.368,1.367-1.368,3.585,0,4.952l8.018,8.018v-1.608L19.217,46.852z"/>
	<path class="st1" d="M25.628,55.37c-0.13,0-0.258-0.051-0.354-0.146l-8.018-8.018c-0.756-0.755-1.172-1.76-1.172-2.83
		c0-1.069,0.417-2.074,1.172-2.83c1.559-1.56,4.098-1.561,5.659,0l3.065,3.065c0.094,0.094,0.146,0.221,0.146,0.354v9.904
		c0,0.202-0.122,0.385-0.309,0.462C25.757,55.358,25.692,55.37,25.628,55.37z M20.086,41.376c-0.769,0-1.538,0.292-2.123,0.877
		c-0.567,0.567-0.879,1.321-0.879,2.123s0.313,1.556,0.879,2.123l7.164,7.164v-8.49l-2.919-2.919
		C21.623,41.669,20.855,41.376,20.086,41.376z"/>
	<path class="st1" d="M45.233,61.451H29.73c-2.538,0-4.603-2.065-4.603-4.603V23.378c0-2.02,1.643-3.663,3.663-3.663
		s3.663,1.643,3.663,3.663v13.568h13.601c2.085,0,3.782,1.697,3.782,3.782v16.12C49.836,59.386,47.771,61.451,45.233,61.451z
		 M28.79,20.715c-1.468,0-2.663,1.194-2.663,2.663v33.471c0,1.987,1.616,3.603,3.603,3.603h15.502c1.987,0,3.603-1.616,3.603-3.603
		v-16.12c0-1.534-1.248-2.782-2.782-2.782H31.953c-0.276,0-0.5-0.224-0.5-0.5V23.378C31.453,21.909,30.258,20.715,28.79,20.715z"/>
	<path class="st1" d="M44.596,44.73h-4.439c-0.276,0-0.5-0.224-0.5-0.5v-7.216h1v6.716h3.939V44.73z"/>
	<path class="st1" d="M36.887,50.319h-1v-9.117c0-0.276,0.224-0.5,0.5-0.5h3.77v1h-3.27V50.319z"/>
	<path class="st1" d="M33.549,46.053h-2.928c-0.276,0-0.5-0.224-0.5-0.5v-4.431h-4.494v-1h4.994c0.276,0,0.5,0.224,0.5,0.5v4.431
		h2.428V46.053z"/>
	<path class="st1" d="M34.049,53.202h-1V49.08h-7.421v-1h7.921c0.276,0,0.5,0.224,0.5,0.5V53.202z"/>
	<path class="st1" d="M42.21,53.202h-1v-4.563h-4.822v-1h5.322c0.276,0,0.5,0.224,0.5,0.5V53.202z"/>
	<rect x="41.71" y="50.391" class="st1" width="5.547" height="1"/>
	<path class="st1" d="M33.837,58.47h-5.018c-0.276,0-0.5-0.224-0.5-0.5v-9.148h1v8.648h4.518V58.47z"/>
	<rect x="37.273" y="53.812" class="st1" width="1" height="7.041"/>
	<g>
		<path class="st11" d="M31.953,23.378v14.068h3.961V23.378c0-1.747-1.416-3.163-3.163-3.163h0H28.79
			C30.537,20.215,31.953,21.631,31.953,23.378z"/>
		<path class="st11" d="M50.014,37.446h-3.961c1.813,0,3.282,1.47,3.282,3.282v16.12c0,2.266-1.837,4.103-4.103,4.103h3.961
			c2.266,0,4.103-1.837,4.103-4.103v-16.12C53.296,38.915,51.827,37.446,50.014,37.446z"/>
	</g>
	<g>
		<path class="st1" d="M35.913,37.946h-3.96c-0.276,0-0.5-0.224-0.5-0.5V23.378c0-1.468-1.194-2.663-2.663-2.663
			c-0.276,0-0.5-0.224-0.5-0.5s0.224-0.5,0.5-0.5h3.96c2.02,0,3.663,1.643,3.663,3.663v14.068
			C36.413,37.722,36.19,37.946,35.913,37.946z M32.453,36.946h2.96V23.378c0-1.468-1.194-2.663-2.663-2.663h-1.448
			c0.708,0.668,1.15,1.615,1.15,2.663V36.946z"/>
		<path class="st1" d="M49.193,61.451h-3.961c-0.276,0-0.5-0.224-0.5-0.5s0.224-0.5,0.5-0.5c1.987,0,3.603-1.616,3.603-3.603v-16.12
			c0-1.534-1.248-2.782-2.782-2.782c-0.276,0-0.5-0.224-0.5-0.5s0.224-0.5,0.5-0.5h3.96c2.086,0,3.783,1.697,3.783,3.782v16.12
			C53.796,59.386,51.732,61.451,49.193,61.451z M48.094,60.451h1.099c1.987,0,3.603-1.616,3.603-3.603v-16.12
			c0-1.534-1.249-2.782-2.783-2.782h-1.401c0.751,0.692,1.223,1.683,1.223,2.782v16.12C49.836,58.306,49.155,59.607,48.094,60.451z"
			/>
	</g>
	<path class="st11" d="M22.562,41.9l3.066,3.065v-4.091h-5.527l0.002,0.002C20.993,40.88,21.882,41.221,22.562,41.9z"/>
	<path class="st1" d="M25.628,45.466c-0.13,0-0.258-0.051-0.354-0.146l-3.065-3.065c-0.563-0.562-1.312-0.874-2.109-0.877
		c-0.132,0-0.258-0.053-0.351-0.146c-0.143-0.143-0.187-0.359-0.109-0.545c0.078-0.187,0.259-0.31,0.461-0.31h5.527
		c0.276,0,0.5,0.224,0.5,0.5v4.091c0,0.202-0.122,0.385-0.309,0.462C25.757,45.453,25.692,45.466,25.628,45.466z M22.733,41.375
		c0.062,0.055,0.123,0.112,0.183,0.172l0,0l2.212,2.212v-2.384H22.733z"/>
	
		<rect x="21.938" y="9.7" transform="matrix(0.6521 -0.7581 0.7581 0.6521 -2.4378 21.7114)" class="st1" width="1" height="7.624"/>
	
		<rect x="18.093" y="23.614" transform="matrix(0.9286 -0.3711 0.3711 0.9286 -7.4228 9.6463)" class="st1" width="6.53" height="1"/>
	
		<rect x="35.664" y="14.118" transform="matrix(0.844 -0.5363 0.5363 0.844 -1.5539 23.8936)" class="st1" width="9.273" height="1"/>
	
		<rect x="41.049" y="18.653" transform="matrix(0.357 -0.9341 0.9341 0.357 4.6997 53.9665)" class="st1" width="1" height="9.833"/>
</g>
</svg>
