<svg xmlns="http://www.w3.org/2000/svg" viewBox="0 0 512 512"><title>Artboard 104</title><g id="Lego_Toys" data-name="Lego Toys"><polygon points="256 42.667 21.333 170.667 21.333 362.667 256 490.667 490.667 362.667 490.667 170.667 256 42.667" style="fill:#fad47f"/><ellipse cx="138.66667" cy="181.33333" rx="74.66667" ry="32" style="fill:#e59e0e"/><ellipse cx="288" cy="245.33333" rx="74.66667" ry="32" style="fill:#e59e0e"/><ellipse cx="266.66667" cy="117.33333" rx="74.66667" ry="32" style="fill:#e59e0e"/><ellipse cx="416" cy="181.33333" rx="74.66667" ry="32" style="fill:#e59e0e"/><path d="M320,181.33333c0-17.67317-28.65365-32-64-32s-64,14.32683-64,32V224c0,17.67318,28.65365,32,64,32s64-14.32682,64-32Z" style="fill:#ebad1e"/><path d="M213.33333,247.69531V157.638C200.32943,163.49479,192,171.89323,192,181.33333V224C192,233.4401,200.32943,241.83854,213.33333,247.69531Z" style="fill:#f9c450"/><ellipse cx="256" cy="181.33333" rx="64" ry="32" style="fill:#fde7b8"/><path d="M192,117.33333c0-17.67317-28.65365-32-64-32s-64,14.32683-64,32V160c0,17.67318,28.65365,32,64,32s64-14.32682,64-32Z" style="fill:#ebad1e"/><path d="M85.33333,183.69531V93.638C72.32943,99.49479,64,107.89323,64,117.33333V160C64,169.4401,72.32943,177.83854,85.33333,183.69531Z" style="fill:#f9c450"/><path d="M448,117.33333c0-17.67317-28.65365-32-64-32s-64,14.32683-64,32V160c0,17.67318,28.65365,32,64,32s64-14.32682,64-32Z" style="fill:#ebad1e"/><path d="M320,53.33333c0-17.67317-28.65365-32-64-32s-64,14.32683-64,32V96c0,17.67318,28.65365,32,64,32s64-14.32682,64-32Z" style="fill:#ebad1e"/><path d="M213.33333,119.69531V29.638C200.32943,35.49479,192,43.89323,192,53.33333V96C192,105.4401,200.32943,113.83854,213.33333,119.69531Z" style="fill:#f9c450"/><path d="M341.33333,183.69531V93.638C328.32943,99.49479,320,107.89323,320,117.33333V160C320,169.4401,328.32943,177.83854,341.33333,183.69531Z" style="fill:#f9c450"/><ellipse cx="128" cy="117.33333" rx="64" ry="32" style="fill:#fde7b8"/><ellipse cx="384" cy="117.33333" rx="64" ry="32" style="fill:#fde7b8"/><ellipse cx="256" cy="53.33333" rx="64" ry="32" style="fill:#fde7b8"/><polygon points="21.333 170.667 256 298.667 256 490.667 21.333 362.667 21.333 170.667" style="fill:#f9c450"/><polygon points="490.667 170.667 256 298.667 256 490.667 490.667 362.667 490.667 170.667" style="fill:#e59e0e"/></g></svg>