<svg version="1.2" xmlns="http://www.w3.org/2000/svg" viewBox="0 0 512 512" width="512" height="512"><style>.a{fill:#27273d}.b{fill:#3e436d}.c{fill:#32314b}.d{fill:#ac60fc}.e{fill:#925adb}.f{fill:#fe4583}.g{fill:#fff}.h{fill:#bababa}.i{fill:#4f4f74}.j{fill:#666691}.k{fill:#f8d572}.l{fill:#f9bd38}.m{fill:#e2c06d}.n{fill:#dda636}.o{fill:#3588cd}.p{fill:#3385bc}.q{fill:#366fcc}.r{fill:#3268b7}.s{fill:#ed4f4f}.t{fill:#dd1b1b}.u{fill:#cc4a4a}.v{fill:#bc1b1b}.w{fill:#03e277}.x{fill:#00b764}.y{fill:#05cc68}.z{fill:#049e54}</style><path class="a" d="m243.1 463.7v18.1c0 5-4 8.9-8.9 8.9h-80.5c-10.8-4.7-21.3-10.1-31.3-16.3q-8.2-5-16.1-10.7z"/><path class="b" d="m262.5 38.5v418.7c0 9.5-7.8 17.2-17.3 17.2h-122.8q-8.2-5-16.1-10.7c-9.4-6.8-18.4-14.3-26.8-22.3q-7.9-7.5-15.1-15.6v-387.3c0-9.5 7.7-17.2 17.2-17.2h163.6c9.5 0 17.3 7.7 17.3 17.2z"/><path class="c" d="m105 347.4v51.6c0 10-3.8 19.7-10.8 26.9l-14.7 15.5q-7.9-7.5-15.1-15.6v-146.4l33.1 44.9c4.9 6.7 7.5 14.8 7.5 23.1z"/><path class="c" d="m262.5 279.4l-33.1 44.9c-4.9 6.7-7.6 14.8-7.6 23.1v51.6c0 10.1 3.9 19.7 10.8 26.9l29.9 31.3z"/><path class="c" d="m196.5 53h-60.9c-6.5 0-12.1-4.7-13.2-11.1l-3.4-20.6h94.2l-3.5 20.6c-1.1 6.4-6.7 11.1-13.2 11.1z"/><path class="d" d="m224.2 178.7h-119.9c-8.3 0-15-6.8-15-15v-70.7c0-8.3 6.7-15 15-15h119.9c8.3 0 15 6.7 15 15v70.7c0 8.2-6.7 15-15 15z"/><path class="e" d="m239.2 145.1v18.6c0 8.2-6.7 14.9-15 14.9h-119.9c-8.3 0-15-6.7-15-14.9v-70.7c0-8.3 6.7-15 15-15h25v52.1c0 8.3 6.7 15 15 15z"/><path class="f" d="m164.3 205.4c-25.9 0-47 21.1-47 46.9 0 25.9 21.1 47 47 47 25.9 0 46.9-21.1 46.9-47 0-25.9-21-46.9-46.9-46.9zm0 77.8c-17 0-30.9-13.8-30.9-30.9 0-14.2 9.7-26.2 22.8-29.8v27.5c0 4.4 3.6 8 8.1 8 4.4 0 8-3.6 8-8v-27.5c13.1 3.6 22.8 15.6 22.8 29.8 0 17.1-13.8 30.9-30.8 30.9z"/><path class="c" d="m199.7 352.1h-70.9c-4.8 0-8.7-3.9-8.7-8.7 0-4.8 3.9-8.7 8.7-8.7h70.9c4.9 0 8.7 3.9 8.7 8.7 0 4.8-3.8 8.7-8.7 8.7z"/><path class="c" d="m199.7 383.4h-70.9c-4.8 0-8.7-3.9-8.7-8.7 0-4.8 3.9-8.7 8.7-8.7h70.9c4.9 0 8.7 3.9 8.7 8.7 0 4.8-3.8 8.7-8.7 8.7z"/><path class="c" d="m199.7 414.6h-70.9c-4.8 0-8.7-3.9-8.7-8.7 0-4.8 3.9-8.7 8.7-8.7h70.9c4.9 0 8.7 3.9 8.7 8.7 0 4.8-3.8 8.7-8.7 8.7z"/><path class="g" d="m450.8 272.5c-9.7-25-37.8-37.5-62.8-27.8-6 2.3-11.3 5.6-15.7 9.8-6.9 6.4-16.1 9.8-25.6 9.8h-17.7c-9.4 0-18.6-3.4-25.5-9.8-4.5-4.2-9.7-7.5-15.7-9.8-25-9.7-53.2 2.8-62.8 27.8-9.7 25-23.7 121.7 1.4 131.4 12.3 4.7 31.9-12.6 49.7-34.4 8.8-10.8 22.1-17 36-17h51.5c14 0 27.3 6.2 36.1 17 17.8 21.8 37.3 39.1 49.7 34.4 25-9.7 11.1-106.4 1.4-131.4z"/><path fill-rule="evenodd" class="h" d="m269.6 346.9c-24.6 0-44.5-19.9-44.5-44.5 0-24.7 19.9-44.6 44.5-44.6 24.7 0 44.6 19.9 44.6 44.6 0 24.6-19.9 44.5-44.6 44.5z"/><path fill-rule="evenodd" class="h" d="m406.1 346.9c-24.6 0-44.5-19.9-44.5-44.5 0-24.7 19.9-44.6 44.5-44.6 24.7 0 44.6 19.9 44.6 44.6 0 24.6-19.9 44.5-44.6 44.5z"/><path fill-rule="evenodd" class="h" d="m337.9 304c-8.3 0-14.9-6.7-14.9-14.9 0-8.3 6.6-14.9 14.9-14.9 8.2 0 14.9 6.6 14.9 14.9 0 8.2-6.7 14.9-14.9 14.9z"/><path fill-rule="evenodd" class="g" d="m337.9 298.9c-5.4 0-9.8-4.4-9.8-9.8 0-5.4 4.4-9.8 9.8-9.8 5.4 0 9.8 4.4 9.8 9.8 0 5.4-4.4 9.8-9.8 9.8z"/><path class="i" d="m296.9 290.8h-8.6c-3 0-5.5-2.5-5.5-5.5v-8.5c0-3.1-2.4-5.5-5.5-5.5h-15.3c-3.1 0-5.5 2.4-5.5 5.5v8.5c0 3-2.5 5.5-5.6 5.5h-8.5c-3 0-5.5 2.5-5.5 5.5v15.4c0 3 2.5 5.5 5.5 5.5h8.5c3.1 0 5.6 2.5 5.6 5.5v8.5c0 3.1 2.4 5.5 5.5 5.5h15.3c3.1 0 5.5-2.4 5.5-5.5v-8.5c0-3 2.5-5.5 5.5-5.5h8.6c3 0 5.5-2.5 5.5-5.5v-15.4c0-3-2.5-5.5-5.5-5.5z"/><path class="j" d="m286.7 295.7h-5.3c-1.9 0-3.5-1.5-3.5-3.4v-5.4c0-1.9-1.5-3.4-3.4-3.4h-9.7c-1.9 0-3.4 1.5-3.4 3.4v5.4c0 1.9-1.6 3.4-3.5 3.4h-5.3c-1.9 0-3.5 1.6-3.5 3.5v9.6c0 1.9 1.6 3.5 3.5 3.5h5.3c1.9 0 3.5 1.5 3.5 3.4v5.4c0 1.9 1.5 3.4 3.4 3.4h9.7c1.9 0 3.4-1.5 3.4-3.4v-5.4c0-1.9 1.6-3.4 3.5-3.4h5.3c1.9 0 3.5-1.6 3.5-3.5v-9.6c0-1.9-1.6-3.5-3.5-3.5z"/><path fill-rule="evenodd" class="k" d="m405.8 288.6c-7.7 0-13.9-6.3-13.9-14 0-7.7 6.2-13.9 13.9-13.9 7.7 0 14 6.2 14 13.9 0 7.7-6.3 14-14 14z"/><path fill-rule="evenodd" class="l" d="m405.8 286.2c-6.4 0-11.5-5.2-11.5-11.6 0-6.4 5.1-11.6 11.5-11.6 6.4 0 11.6 5.2 11.6 11.6 0 6.4-5.2 11.6-11.6 11.6z"/><path class="m" d="m400 274.6c0 4.8 2.4 9.1 6.1 11.6q0.6 0.4 1.2 0.7 1.2 0.6 2.6 1.1-2 0.5-4.1 0.6c-7.7 0-13.9-6.3-13.9-14q0-0.2 0-0.4 0-0.1 0-0.2 0 0 0 0 0-0.1 0-0.2c0.4-7.3 6.5-13.1 13.9-13.1q2.1 0 4.1 0.6-2.1 0.6-3.8 1.7c-3.7 2.6-6.1 6.8-6.1 11.6z"/><path class="n" d="m406.1 286.2q-0.1 0-0.3 0c-6.4 0-11.5-5.2-11.5-11.6 0-6.4 5.1-11.6 11.5-11.6q0.2 0 0.3 0c-3.7 2.6-6.1 6.8-6.1 11.6 0 4.8 2.4 9.1 6.1 11.6z"/><path fill-rule="evenodd" class="o" d="m382 315.8c-7.7 0-14-6.2-14-13.9 0-7.7 6.3-14 14-14 7.7 0 13.9 6.3 13.9 14 0 7.7-6.2 13.9-13.9 13.9z"/><path class="p" d="m376.1 301.9c0 4.8 2.5 9 6.2 11.5q0.6 0.4 1.2 0.8 1.2 0.6 2.5 1-1.9 0.6-4 0.6c-7.7 0-14-6.2-14-13.9q0-0.2 0-0.4 0-0.1 0.1-0.2 0 0 0-0.1 0 0 0-0.1c0.4-7.4 6.5-13.2 13.9-13.2q2.1 0 4 0.6-2 0.6-3.7 1.8c-3.7 2.5-6.2 6.8-6.2 11.6z"/><path fill-rule="evenodd" class="q" d="m382 313.4c-6.4 0-11.6-5.1-11.6-11.5 0-6.4 5.2-11.6 11.6-11.6 6.4 0 11.5 5.2 11.5 11.6 0 6.4-5.1 11.5-11.5 11.5z"/><path class="r" d="m386.4 312.8q-1.7 0.6-3.7 0.6c-6.3 0-11.5-5.1-11.5-11.5 0-6.4 5.2-11.6 11.5-11.6q2 0 3.7 0.6c-4.6 1.5-7.9 5.9-7.9 11 0 5.1 3.3 9.4 7.9 10.9z"/><path fill-rule="evenodd" class="s" d="m431.3 315.8c-7.7 0-13.9-6.2-13.9-13.9 0-7.7 6.2-14 13.9-14 7.7 0 14 6.3 14 14 0 7.7-6.3 13.9-14 13.9z"/><path fill-rule="evenodd" class="t" d="m431.3 313.4c-6.4 0-11.5-5.1-11.5-11.5 0-6.4 5.1-11.6 11.5-11.6 6.4 0 11.6 5.2 11.6 11.6 0 6.4-5.2 11.5-11.6 11.5z"/><path class="u" d="m425.5 301.9c0 4.8 2.4 9 6.1 11.5q0.6 0.4 1.2 0.8 1.2 0.6 2.6 1-2 0.6-4.1 0.6c-7.7 0-13.9-6.2-13.9-13.9q0-0.2 0-0.4 0-0.1 0-0.2 0 0 0-0.1 0 0 0-0.1c0.4-7.4 6.5-13.2 13.9-13.2q2.2 0 4.1 0.6-2 0.6-3.8 1.8c-3.7 2.5-6.1 6.8-6.1 11.6z"/><path class="v" d="m431.6 313.4q-0.1 0-0.3 0c-6.4 0-11.5-5.1-11.5-11.5 0-6.4 5.1-11.6 11.5-11.6q0.2 0 0.3 0c-3.7 2.5-6.1 6.8-6.1 11.6 0 4.8 2.4 9 6.1 11.5z"/><path fill-rule="evenodd" class="w" d="m405.8 340.4c-7.7 0-13.9-6.2-13.9-13.9 0-7.7 6.2-14 13.9-14 7.7 0 14 6.3 14 14 0 7.7-6.3 13.9-14 13.9z"/><path fill-rule="evenodd" class="x" d="m405.8 338c-6.4 0-11.5-5.1-11.5-11.5 0-6.4 5.1-11.6 11.5-11.6 6.4 0 11.6 5.2 11.6 11.6 0 6.4-5.2 11.5-11.6 11.5z"/><path class="y" d="m400 326.5c0 4.8 2.4 9 6.1 11.5q0.6 0.4 1.2 0.8 1.2 0.6 2.6 1-2 0.6-4.1 0.6c-7.7 0-13.9-6.2-13.9-13.9q0-0.2 0-0.4 0-0.1 0-0.2 0 0 0-0.1 0 0 0-0.1c0.4-7.4 6.5-13.2 13.9-13.2q2.1 0 4.1 0.6-2.1 0.7-3.8 1.8c-3.7 2.5-6.1 6.8-6.1 11.6z"/><path class="z" d="m406.1 338q-0.1 0-0.3 0c-6.4 0-11.5-5.1-11.5-11.5 0-6.4 5.1-11.6 11.5-11.6q0.2 0 0.3 0c-3.7 2.5-6.1 6.8-6.1 11.6 0 4.8 2.4 9 6.1 11.5z"/><path class="c" d="m332.2 340.4h-18.6c-0.9 0-1.7-0.7-1.7-1.7v-5.7c0-0.9 0.8-1.7 1.7-1.7h18.6c0.9 0 1.7 0.8 1.7 1.7v5.7c0 1-0.8 1.7-1.7 1.7z"/><path class="c" d="m363.8 340.4h-18.5c-1 0-1.7-0.7-1.7-1.7v-5.7c0-0.9 0.7-1.7 1.7-1.7h18.5c1 0 1.7 0.8 1.7 1.7v5.7c0 1-0.7 1.7-1.7 1.7z"/></svg>