<svg xmlns="http://www.w3.org/2000/svg" viewBox="0 0 48 48"><defs><style>.cls-1{fill:#fff;}.cls-2{fill:#65b1fc;}.cls-3{fill:#256494;}</style></defs><title>4-Save Game</title><g id="_4-Save_Game" data-name="4-Save Game"><path class="cls-1" d="M34,1V14a1,1,0,0,1-1,1H9a1,1,0,0,1-1-1V1Z"/><path class="cls-2" d="M46,13V45a2.006,2.006,0,0,1-2,2H4a2.006,2.006,0,0,1-2-2V3A2.006,2.006,0,0,1,4,1H8V14a1,1,0,0,0,1,1H33a1,1,0,0,0,1-1V1Z"/><rect class="cls-1" x="10" y="27" width="28" height="20"/><rect class="cls-2" x="13" y="5" width="10" height="4"/><path class="cls-1" d="M32.66,25.34,27,31l5.66,5.66a8,8,0,1,1,0-11.32Z"/><path class="cls-3" d="M46.707,12.293l-12-12A1,1,0,0,0,34,0H4A3,3,0,0,0,1,3V45a3,3,0,0,0,3,3H44a3,3,0,0,0,3-3V13A1,1,0,0,0,46.707,12.293ZM9,2H33V14H9ZM45,45a1,1,0,0,1-1,1H11V28h5V26H10a1,1,0,0,0-1,1V46H4a1,1,0,0,1-1-1V3A1,1,0,0,1,4,2H7V14a2,2,0,0,0,2,2H33a2,2,0,0,0,2-2V3.414l10,10Z"/><rect class="cls-3" x="27" y="4" width="2" height="8"/><path class="cls-3" d="M23,4H13a1,1,0,0,0-1,1V9a1,1,0,0,0,1,1H23a1,1,0,0,0,1-1V5A1,1,0,0,0,23,4ZM22,8H14V6h8Z"/><path class="cls-3" d="M28.414,31l4.953-4.953a1,1,0,0,0,0-1.417,9,9,0,1,0,0,12.74,1,1,0,0,0,0-1.417ZM27,38a7,7,0,1,1,4.194-12.608l-4.9,4.9a1,1,0,0,0,0,1.414l4.9,4.9A6.977,6.977,0,0,1,27,38Z"/><rect class="cls-3" x="36" y="30" width="2" height="2"/><rect class="cls-3" x="32" y="30" width="2" height="2"/><rect class="cls-3" x="40" y="30" width="2" height="2"/><path class="cls-3" d="M15,39H13v4a1,1,0,0,0,1,1h4V42H15Z"/></g></svg>