<svg version="1.2" xmlns="http://www.w3.org/2000/svg" viewBox="0 0 2048 2048" width="2048" height="2048"><style>.a{fill:none}.b{fill:#37474f}.c{fill:#455a64}.d{fill:#b0bec5}.e{fill:#ff6f00}.f{fill:#78909c}</style><path fill-rule="evenodd" class="a" d="m1024-444.6c811.1 0 1468.6 657.5 1468.6 1468.6 0 811.1-657.5 1468.6-1468.6 1468.6-811.1 0-1468.6-657.5-1468.6-1468.6 0-811.1 657.5-1468.6 1468.6-1468.6z"/><path class="b" d="m253.6 292.4h261.3 820.5 117.8c9.2 0 17.5 3.8 23.4 9.8l341 341c6.4 6.4 9.6 14.8 9.6 23.2v1101.2c0 18.1-14.7 32.8-32.8 32.8h-1540.8c-18.1 0-32.8-14.7-32.8-32.8v-1442.4c0-18.1 14.7-32.8 32.8-32.8z"/><path class="c" d="m253.6 247.6h261.3 820.5 117.8c9.2 0 17.5 3.7 23.4 9.8l341 340.9c6.4 6.4 9.6 14.8 9.6 23.2v1101.3c0 18.1-14.7 32.8-32.8 32.8h-1540.8c-18.1 0-32.8-14.7-32.8-32.8v-1442.4c0-18.1 14.7-32.8 32.8-32.8z"/><path fill-rule="evenodd" class="b" d="m558.7 247.6h760.8v363.4c0 17.3-14.1 31.4-31.4 31.4h-698c-17.3 0-31.4-14.1-31.4-31.4z"/><path fill-rule="evenodd" class="d" d="m694.7 247.6h567.3v271c0 12.9-10.5 23.4-23.4 23.4h-520.5c-12.9 0-23.4-10.5-23.4-23.4 0 0 0-271 0-271z"/><path fill-rule="evenodd" class="b" d="m1216.9 327v135.6h-35.5v-135.6z"/><path fill-rule="evenodd" class="d" d="m1465.9 1010.4v745.2h-907.2v-745.2z"/><path fill-rule="evenodd" class="e" d="m1465.9 1010.4v62.7h-907.2v-62.7z"/><path fill-rule="evenodd" class="f" d="m1340.1 1356.8v66.6h-655.6v-66.6z"/><path fill-rule="evenodd" class="f" d="m1340.1 1205.1v66.6h-655.6v-66.6z"/><path fill-rule="evenodd" class="f" d="m1340.1 1486.8v66.6h-655.6v-66.6z"/><path fill-rule="evenodd" class="b" d="m320.7 1707.7c-20.4 0-36.9-16.5-36.9-36.9 0-20.4 16.5-36.9 36.9-36.9 20.4 0 36.9 16.5 36.9 36.9 0 20.4-16.5 36.9-36.9 36.9z"/><path fill-rule="evenodd" class="b" d="m1727.3 1707.7c-20.4 0-36.9-16.5-36.9-36.9 0-20.4 16.5-36.9 36.9-36.9 20.4 0 36.9 16.5 36.9 36.9 0 20.4-16.5 36.9-36.9 36.9z"/></svg>