<?xml version="1.0" encoding="utf-8"?>
<!-- Generator: Adobe Illustrator 19.1.0, SVG Export Plug-In . SVG Version: 6.00 Build 0)  -->
<svg version="1.1" xmlns="http://www.w3.org/2000/svg" xmlns:xlink="http://www.w3.org/1999/xlink" x="0px" y="0px"
	 viewBox="0 0 270.6 270.6" enable-background="new 0 0 270.6 270.6" xml:space="preserve">
<g id="CREATIVE_PROCESS">
</g>
<g id="LOGO_DESIGN">
</g>
<g id="INNOVATION">
</g>
<g id="DESIGN_TOOLS">
</g>
<g id="INTERFACE">
</g>
<g id="WEB_CODING">
</g>
<g id="WIREFRAMING_TOOLS">
</g>
<g id="PROTOTYPE">
</g>
<g id="BRAINSTORMING">
</g>
<g id="PREMIUM_SERVICE">
</g>
<g id="GRAPHIC_DESIGN_SOFTWARE">
	<rect fill="#5EB4E7" width="270.6" height="270.6"/>
	<g>
		<g>
			<g>
				<g>
					<path fill="#282D33" d="M96.5,189.3H70.1v-36.1h26.4V189.3z M74.1,185.3h18.4v-28.1H74.1V185.3z"/>
				</g>
				<g>
					<rect x="81.4" y="155.7" fill="#282D33" width="4" height="31"/>
				</g>
				<g>
					<rect x="72.1" y="163.7" fill="#282D33" width="22.6" height="4"/>
				</g>
				<g>
					<rect x="72.1" y="174.4" fill="#282D33" width="22.6" height="4"/>
				</g>
			</g>
			<g>
				<g>
					<rect x="59.8" y="168.6" fill="#282D33" width="7" height="4"/>
				</g>
				<g>
					<path fill="#282D33" d="M51.6,150.1c-1.1,0-2-0.9-2-2V144c0-1.1,0.9-2,2-2s2,0.9,2,2v4.1C53.6,149.2,52.7,150.1,51.6,150.1z"/>
				</g>
				<g>
					<path fill="#282D33" d="M75,150.1c-1.1,0-2-0.9-2-2V144c0-1.1,0.9-2,2-2s2,0.9,2,2v4.1C77,149.2,76.1,150.1,75,150.1z"/>
				</g>
				<g>
					<path fill="#282D33" d="M63.3,171.9c-1.1,0-2-0.9-2-2v-24.6c0-1.1,0.9-2,2-2s2,0.9,2,2v24.6C65.3,171,64.4,171.9,63.3,171.9z"
						/>
				</g>
				<g>
					<path fill="#282D33" d="M75,146H51.6c-1.1,0-2-0.9-2-2s0.9-2,2-2H75c1.1,0,2,0.9,2,2S76.1,146,75,146z"/>
				</g>
			</g>
		</g>
		<g>
			<g>
				<rect x="119.7" y="146.7" fill="#282D33" width="93" height="4"/>
			</g>
			<g>
				<rect x="110.7" y="146.7" fill="#282D33" width="4.5" height="4"/>
			</g>
			<g>
				<rect x="217.7" y="146.7" fill="#282D33" width="4.5" height="4"/>
			</g>
			<g>
				<rect x="127.2" y="143.2" fill="#282D33" width="4" height="11"/>
			</g>
			<g>
				<rect x="119.7" y="164.4" fill="#282D33" width="93" height="4"/>
			</g>
			<g>
				<rect x="110.7" y="164.4" fill="#282D33" width="4.5" height="4"/>
			</g>
			<g>
				<rect x="217.7" y="164.4" fill="#282D33" width="4.5" height="4"/>
			</g>
			<g>
				<rect x="196.4" y="160.9" fill="#282D33" width="4" height="11"/>
			</g>
			<g>
				<rect x="119.7" y="182.2" fill="#282D33" width="93" height="4"/>
			</g>
			<g>
				<rect x="110.7" y="182.2" fill="#282D33" width="4.5" height="4"/>
			</g>
			<g>
				<rect x="217.7" y="182.2" fill="#282D33" width="4.5" height="4"/>
			</g>
			<g>
				<rect x="149.2" y="178.7" fill="#282D33" width="4" height="11"/>
			</g>
		</g>
		<g>
			<rect x="69.4" y="99.4" fill="#FFFFFF" width="22" height="21"/>
			<g>
				<path fill="#282D33" d="M228.4,131.4h-181v-71h181V131.4z M51.4,127.4h173v-63h-173V127.4z"/>
			</g>
			<g>
				<rect x="49.4" y="77.4" fill="#282D33" width="177" height="4"/>
			</g>
			<rect x="141.4" y="88.4" fill="#2E95D1" width="34" height="33"/>
			<path fill="#282D33" d="M75.4,92.4v14h-14v-14H75.4L75.4,92.4z M79.4,88.4h-22v22h22V88.4L79.4,88.4z"/>
			<rect x="100.4" y="88.4" fill="#282D33" width="34" height="33"/>
			<rect x="182.4" y="88.4" fill="#FFFFFF" width="34" height="33"/>
			<g>
				<rect x="57.4" y="69.4" fill="#282D33" width="6" height="4"/>
			</g>
			<g>
				<rect x="70.4" y="69.4" fill="#282D33" width="6" height="4"/>
			</g>
			<g>
				<rect x="83.4" y="69.4" fill="#282D33" width="6" height="4"/>
			</g>
		</g>
	</g>
</g>
<g id="UNDER_CONSTRUCTION">
</g>
<g id="SERVICES">
</g>
<g id="THINK_OUTSIDE_THE_BOX">
</g>
<g id="VISION">
</g>
<g id="GRAPHIC_DESIGN">
</g>
</svg>
