<?xml version="1.0" encoding="utf-8"?>
<!-- Generator: Adobe Illustrator 21.0.0, SVG Export Plug-In . SVG Version: 6.00 Build 0)  -->
<svg version="1.1" id="Layer_1" xmlns="http://www.w3.org/2000/svg" xmlns:xlink="http://www.w3.org/1999/xlink" x="0px" y="0px"
	 viewBox="0 0 128 128" style="enable-background:new 0 0 128 128;" xml:space="preserve">
<style type="text/css">
	.st0{fill:#CFF1FB;}
	.st1{fill:#91DEF5;}
	.st2{fill:#F6F7F7;}
	.st3{fill:#FFCFB8;}
	.st4{fill:#FFA77B;}
	.st5{fill:#E9EAEB;}
	.st6{fill:#746887;}
	.st7{fill:#F98770;}
	.st8{fill:#9B9B9B;}
	.st9{fill:#FFDDCF;}
	.st10{fill:#FFFFFF;}
	.st11{fill:#B7B7B7;}
	.st12{fill:#FFBC99;}
	.st13{fill:#DBDCDE;}
	.st14{fill:#FECFBA;}
	.st15{fill:#D0F1FA;}
	.st16{fill:#FDA77F;}
	.st17{fill:#94DEF4;}
</style>
<g>
	<g>
		<path class="st2" d="M123.5,36.5h-62c-1.66,0-3,1.34-3,3v84c0,1.66,1.34,3,3,3h62c1.66,0,3-1.34,3-3v-84
			C126.5,37.84,125.16,36.5,123.5,36.5z"/>
		<path class="st5" d="M103.5,1.5h-99c-1.66,0-3,1.34-3,3v104c0,1.66,1.34,3,3,3h54v-72c0-1.66,1.34-3,3-3h45v-32
			C106.5,2.84,105.16,1.5,103.5,1.5z"/>
		<path class="st3" d="M109.75,72.5l-8.33,16.22c-0.61,1.17-0.92,2.47-0.92,3.79v33.99h18V92.41c0-1.26-0.29-2.5-0.83-3.63
			L109.75,72.5z"/>
		<path class="st12" d="M109.75,72.5l-8.33,16.22c-0.61,1.17-0.92,2.47-0.92,3.79v0.99h18v-1.09c0-1.26-0.29-2.5-0.83-3.63
			L109.75,72.5z"/>
		<path class="st4" d="M123.5,36.5h-62c-1.66,0-3,1.34-3,3v16h68v-16C126.5,37.84,125.16,36.5,123.5,36.5z"/>
		<circle class="st3" cx="74.5" cy="70.5" r="6"/>
		<circle class="st3" cx="74.5" cy="90.5" r="6"/>
		<circle class="st3" cx="74.5" cy="111.5" r="6"/>
		<path class="st4" d="M103.5,1.5h-99c-1.66,0-3,1.34-3,3v11h105v-11C106.5,2.84,105.16,1.5,103.5,1.5z"/>
		<path class="st3" d="M91.5,27.5h-75c-1.657,0-3,1.343-3,3v22c0,1.657,1.343,3,3,3h42v-16c0-1.657,1.343-3,3-3h33v-6
			C94.5,28.843,93.157,27.5,91.5,27.5z"/>
	</g>
	<g>
		<path class="st7" d="M111.099,71.844c-0.249-0.511-0.764-0.837-1.333-0.844c-0.593-0.016-1.091,0.309-1.351,0.815l-8.326,16.211
			C99.377,89.395,99,90.945,99,92.51v0.99c0,0.829,0.671,1.5,1.5,1.5h18c0.829,0,1.5-0.671,1.5-1.5v-1.09
			c0-1.461-0.338-2.939-0.981-4.287L111.099,71.844z M102.019,92c0.068-0.908,0.318-1.794,0.735-2.595l6.959-13.551l6.603,13.572
			c0.387,0.811,0.616,1.692,0.671,2.574H102.019z"/>
		<path class="st6" d="M111.099,71.844c-0.249-0.511-0.764-0.837-1.333-0.844c-0.593-0.016-1.091,0.309-1.351,0.815l-8.326,16.211
			C99.377,89.395,99,90.945,99,92.51v33.99c0,0.829,0.671,1.5,1.5,1.5h18c0.829,0,1.5-0.671,1.5-1.5V92.41
			c0-1.461-0.338-2.939-0.981-4.287L111.099,71.844z M117,125h-15V92.51c0-1.084,0.259-2.155,0.754-3.105l6.959-13.551l6.603,13.572
			c0.447,0.936,0.684,1.968,0.684,2.984V125z"/>
		<path class="st7" d="M91.5,26h-75c-2.481,0-4.5,2.019-4.5,4.5v22c0,2.481,2.019,4.5,4.5,4.5h42c0.829,0,1.5-0.671,1.5-1.5v-16
			c0-0.827,0.673-1.5,1.5-1.5h33c0.829,0,1.5-0.671,1.5-1.5v-6C96,28.019,93.981,26,91.5,26z M93,35H61.5
			c-2.481,0-4.5,2.019-4.5,4.5V54H16.5c-0.827,0-1.5-0.673-1.5-1.5v-22c0-0.827,0.673-1.5,1.5-1.5h75c0.827,0,1.5,0.673,1.5,1.5V35z
			"/>
		<path class="st7" d="M123.5,35h-62c-2.481,0-4.5,2.019-4.5,4.5v16c0,0.829,0.671,1.5,1.5,1.5h68c0.829,0,1.5-0.671,1.5-1.5v-16
			C128,37.019,125.981,35,123.5,35z M125,54H60V39.5c0-0.827,0.673-1.5,1.5-1.5h62c0.827,0,1.5,0.673,1.5,1.5V54z"/>
		<path class="st6" d="M123.5,35h-62c-2.481,0-4.5,2.019-4.5,4.5v84c0,2.481,2.019,4.5,4.5,4.5h62c2.481,0,4.5-2.019,4.5-4.5V95.983
			c0-0.829-0.671-1.5-1.5-1.5s-1.5,0.671-1.5,1.5V123.5c0,0.827-0.673,1.5-1.5,1.5h-62c-0.827,0-1.5-0.673-1.5-1.5v-84
			c0-0.827,0.673-1.5,1.5-1.5h62c0.827,0,1.5,0.673,1.5,1.5v48.533c0,0.829,0.671,1.5,1.5,1.5s1.5-0.671,1.5-1.5V39.5
			C128,37.019,125.981,35,123.5,35z"/>
		<path class="st6" d="M71.5,45h-3c-0.829,0-1.5,0.671-1.5,1.5s0.671,1.5,1.5,1.5h3c0.829,0,1.5-0.671,1.5-1.5S72.329,45,71.5,45z"
			/>
		<path class="st6" d="M79.5,45h-3c-0.829,0-1.5,0.671-1.5,1.5s0.671,1.5,1.5,1.5h3c0.829,0,1.5-0.671,1.5-1.5S80.329,45,79.5,45z"
			/>
		<path class="st7" d="M74.5,63c-4.136,0-7.5,3.364-7.5,7.5s3.364,7.5,7.5,7.5s7.5-3.364,7.5-7.5S78.636,63,74.5,63z M74.5,75
			c-2.481,0-4.5-2.019-4.5-4.5s2.019-4.5,4.5-4.5s4.5,2.019,4.5,4.5S76.981,75,74.5,75z"/>
		<path class="st7" d="M74.5,83c-4.136,0-7.5,3.364-7.5,7.5s3.364,7.5,7.5,7.5s7.5-3.364,7.5-7.5S78.636,83,74.5,83z M74.5,95
			c-2.481,0-4.5-2.019-4.5-4.5s2.019-4.5,4.5-4.5s4.5,2.019,4.5,4.5S76.981,95,74.5,95z"/>
		<path class="st7" d="M74.5,104c-4.136,0-7.5,3.364-7.5,7.5s3.364,7.5,7.5,7.5s7.5-3.364,7.5-7.5S78.636,104,74.5,104z M74.5,116
			c-2.481,0-4.5-2.019-4.5-4.5s2.019-4.5,4.5-4.5s4.5,2.019,4.5,4.5S76.981,116,74.5,116z"/>
		<path class="st7" d="M103.5,0h-99C2.019,0,0,2.019,0,4.5v11C0,16.329,0.671,17,1.5,17h105c0.829,0,1.5-0.671,1.5-1.5v-11
			C108,2.019,105.981,0,103.5,0z M105,14H3V4.5C3,3.673,3.673,3,4.5,3h99c0.827,0,1.5,0.673,1.5,1.5V14z"/>
		<path class="st6" d="M10.557,110H4.5c-0.827,0-1.5-0.673-1.5-1.5V31.25c0-0.829-0.671-1.5-1.5-1.5S0,30.421,0,31.25v77.25
			c0,2.481,2.019,4.5,4.5,4.5h6.057c0.829,0,1.5-0.671,1.5-1.5S11.386,110,10.557,110z"/>
		<path class="st6" d="M103.5,0h-99C2.019,0,0,2.019,0,4.5v18.778c0,0.829,0.671,1.5,1.5,1.5s1.5-0.671,1.5-1.5V4.5
			C3,3.673,3.673,3,4.5,3h99c0.827,0,1.5,0.673,1.5,1.5V35H61.5c-2.481,0-4.5,2.019-4.5,4.5V110H18.202c-0.829,0-1.5,0.671-1.5,1.5
			s0.671,1.5,1.5,1.5H58.5c0.829,0,1.5-0.671,1.5-1.5v-72c0-0.827,0.673-1.5,1.5-1.5h45c0.829,0,1.5-0.671,1.5-1.5v-32
			C108,2.019,105.981,0,103.5,0z"/>
		<path class="st6" d="M14.5,7h-3C10.671,7,10,7.671,10,8.5s0.671,1.5,1.5,1.5h3c0.829,0,1.5-0.671,1.5-1.5S15.329,7,14.5,7z"/>
		<path class="st6" d="M23.5,7h-3C19.671,7,19,7.671,19,8.5s0.671,1.5,1.5,1.5h3c0.829,0,1.5-0.671,1.5-1.5S24.329,7,23.5,7z"/>
		<path class="st6" d="M58.5,65h-45c-0.829,0-1.5,0.671-1.5,1.5s0.671,1.5,1.5,1.5h45c0.829,0,1.5-0.671,1.5-1.5S59.329,65,58.5,65z
			"/>
		<path class="st6" d="M58.5,75h-45c-0.829,0-1.5,0.671-1.5,1.5s0.671,1.5,1.5,1.5h45c0.829,0,1.5-0.671,1.5-1.5S59.329,75,58.5,75z
			"/>
		<path class="st6" d="M58.5,85h-45c-0.829,0-1.5,0.671-1.5,1.5s0.671,1.5,1.5,1.5h45c0.829,0,1.5-0.671,1.5-1.5S59.329,85,58.5,85z
			"/>
		<path class="st6" d="M34.5,95h-21c-0.829,0-1.5,0.671-1.5,1.5s0.671,1.5,1.5,1.5h21c0.829,0,1.5-0.671,1.5-1.5S35.329,95,34.5,95z
			"/>
	</g>
</g>
<g>
</g>
</svg>
